HIERARCHY
ROOT Hips
{
	OFFSET -0.001795 -0.223333 0.028219
	CHANNELS 6 Xposition Yposition Zposition Zrotation Yrotation Xrotation 
	JOINT LeftUpLeg
	{
		OFFSET 0.069520 -0.091406 -0.006815
		CHANNELS 3 Zrotation Yrotation Xrotation
		JOINT LeftLeg
		{
			OFFSET 0.034277 -0.375199 -0.004496
			CHANNELS 3 Zrotation Yrotation Xrotation
			JOINT LeftFoot
			{
				OFFSET -0.013596 -0.397961 -0.043693
				CHANNELS 3 Zrotation Yrotation Xrotation
				JOINT LeftToe
				{
					OFFSET 0.026358 -0.055791 0.119288
					CHANNELS 3 Zrotation Yrotation Xrotation
					End Site
					{
						OFFSET 0.000000 0.000000 0.000000
					}
				}
			}
		}
	}
	JOINT RightUpLeg
	{
		OFFSET -0.067670 -0.090522 -0.004320
		CHANNELS 3 Zrotation Yrotation Xrotation
		JOINT RightLeg
		{
			OFFSET -0.038290 -0.382569 -0.008850
			CHANNELS 3 Zrotation Yrotation Xrotation
			JOINT RightFoot
			{
				OFFSET 0.015774 -0.398415 -0.042312
				CHANNELS 3 Zrotation Yrotation Xrotation
				JOINT RightToe
				{
					OFFSET -0.025372 -0.048144 0.123348
					CHANNELS 3 Zrotation Yrotation Xrotation
					End Site
					{
						OFFSET 0.000000 0.000000 0.000000
					}
				}
			}
		}
	}
	JOINT Spine
	{
		OFFSET -0.002533 0.108963 -0.026696
		CHANNELS 3 Zrotation Yrotation Xrotation
		JOINT Spine1
		{
			OFFSET 0.005487 0.135180 0.001092
			CHANNELS 3 Zrotation Yrotation Xrotation
			JOINT Spine2
			{
				OFFSET 0.001457 0.052922 0.025425
				CHANNELS 3 Zrotation Yrotation Xrotation
				JOINT Neck
				{
					OFFSET -0.002778 0.213870 -0.042857
					CHANNELS 3 Zrotation Yrotation Xrotation
					JOINT Head
					{
						OFFSET 0.005152 0.064970 0.051349
						CHANNELS 3 Zrotation Yrotation Xrotation
						End Site
						{
							OFFSET 0.000000 0.000000 0.000000
						}
					}
				}
				JOINT LeftShoulder
				{
					OFFSET 0.078845 0.121749 -0.034090
					CHANNELS 3 Zrotation Yrotation Xrotation
					JOINT LeftArm
					{
						OFFSET 0.090977 0.030469 -0.008868
						CHANNELS 3 Zrotation Yrotation Xrotation
						JOINT LeftForeArm
						{
							OFFSET 0.259612 -0.012772 -0.027456
							CHANNELS 3 Zrotation Yrotation Xrotation
							JOINT LeftHand
							{
								OFFSET 0.249234 0.008986 -0.001171
								CHANNELS 3 Zrotation Yrotation Xrotation
								End Site
								{
									OFFSET 0.000000 0.000000 0.000000
								}
							}
						}
					}
				}
				JOINT RightShoulder
				{
					OFFSET -0.081759 0.118833 -0.038615
					CHANNELS 3 Zrotation Yrotation Xrotation
					JOINT RightArm
					{
						OFFSET -0.096012 0.032551 -0.009143
						CHANNELS 3 Zrotation Yrotation Xrotation
						JOINT RightForeArm
						{
							OFFSET -0.253742 -0.013329 -0.021401
							CHANNELS 3 Zrotation Yrotation Xrotation
							JOINT RightHand
							{
								OFFSET -0.255298 0.007772 -0.005559
								CHANNELS 3 Zrotation Yrotation Xrotation
								End Site
								{
									OFFSET 0.000000 0.000000 0.000000
								}
							}
						}
					}
				}
			}
		}
	}
}
MOTION
Frames: 16
Frame Time: 0.050000
0.293033 0.973591 1.723142 -3.999464 5.828611 -8.413516 2.699418 0.480151 9.216314 -0.637537 -0.827431 19.598316 2.054662 10.757992 20.497864 0.000000 0.000000 0.000000 4.293962 1.759218 -13.058475 0.866957 0.193671 29.306390 1.336741 -0.968973 10.155587 0.000000 0.000000 0.000000 -3.807663 -0.435061 19.184176 14.020590 -2.116026 -30.332373 -8.538190 -5.773357 35.584053 -6.330711 4.922230 -29.447507 0.000000 0.000000 0.000000 -35.143284 11.683000 -9.678388 -35.236649 -2.356877 -6.365874 -125.774925 -46.633917 88.811546 0.000000 0.000000 0.000000 17.786741 -0.606052 -1.504007 47.086769 -8.877730 -10.957840 121.602669 50.334651 85.397820 0.000000 0.000000 0.000000 
0.297012 0.988093 1.809220 -3.652774 6.332113 -9.033051 4.288293 0.114086 3.541885 -2.828311 -0.994487 33.284770 0.487919 10.642476 29.267894 0.000000 0.000000 0.000000 6.191265 1.114360 -7.121394 -0.372886 0.573038 21.398898 1.473487 -3.907773 20.974509 0.000000 0.000000 0.000000 -4.358104 -0.301083 16.535461 11.356995 -1.542879 -30.340100 -5.367131 -5.494129 36.611998 -5.023761 4.313348 -26.565467 0.000000 0.000000 0.000000 -35.523587 11.113728 -9.612867 -34.079334 -0.591672 -6.620491 -124.243266 -44.497748 83.353115 0.000000 0.000000 0.000000 16.467724 -2.124755 -1.929881 49.548230 -10.389381 -12.320538 124.380612 50.107001 89.886875 0.000000 0.000000 0.000000 
0.301584 0.988860 1.890246 -3.084467 6.833534 -9.876403 5.219634 -0.170234 -2.783382 -4.209938 -0.904266 39.826042 2.560180 13.190718 30.692723 0.000000 0.000000 0.000000 6.649763 -0.019431 0.273804 -1.066311 0.721283 18.604333 0.395195 -5.490852 20.670145 0.000000 0.000000 0.000000 -5.028319 -0.240351 16.730453 10.577701 -1.414443 -29.984180 -3.699644 -2.916445 35.512956 -2.050527 2.957888 -25.488801 0.000000 0.000000 0.000000 -34.316436 10.866787 -10.502772 -33.566177 2.892736 -6.895681 -123.109406 -43.191966 78.407740 0.000000 0.000000 0.000000 17.092633 -2.806242 -1.723543 50.080007 -8.241110 -11.636444 129.428362 49.941653 98.894148 0.000000 0.000000 0.000000 
0.308475 0.988003 1.966473 -2.769708 5.419231 -10.372742 6.455196 -0.306030 -7.528980 -4.203973 -0.243766 31.293305 8.106632 18.841220 26.205741 0.000000 0.000000 0.000000 6.552446 -0.979726 6.037960 -2.043930 1.092184 18.996797 1.449723 -3.219806 17.677391 0.000000 0.000000 0.000000 -6.020601 -0.089634 16.151026 10.090901 -1.417999 -29.150425 -0.901233 1.383408 34.918376 -0.807717 2.916404 -26.381641 0.000000 0.000000 0.000000 -34.018863 10.889607 -12.032160 -31.929253 5.395530 -6.613476 -122.040863 -41.970222 73.459495 0.000000 0.000000 0.000000 16.502091 -2.413560 -0.782911 52.443764 -3.773367 -10.337420 131.996894 51.484441 108.266687 0.000000 0.000000 0.000000 
0.318723 0.993587 2.039903 -3.369853 4.703379 -10.848970 6.908268 -0.295133 -8.456493 -1.849649 -0.221505 14.018113 4.717548 13.984333 18.979524 0.000000 0.000000 0.000000 6.439260 -1.809989 10.940560 -1.932106 1.113848 19.485941 2.532378 -1.985461 19.229917 0.000000 0.000000 0.000000 -6.195809 -0.066565 15.494930 8.328364 -1.044855 -29.024505 2.594944 3.428627 35.210072 -0.774266 3.294682 -27.072326 0.000000 0.000000 0.000000 -32.449774 11.843109 -13.024323 -31.760627 6.361768 -6.612660 -121.048638 -39.667739 67.980325 0.000000 0.000000 0.000000 15.190870 -1.570153 0.011147 53.728264 2.879023 -7.740152 132.866564 53.288645 114.230571 0.000000 0.000000 0.000000 
0.332486 0.996791 2.112941 -3.048901 3.293226 -11.427343 6.423222 -0.300385 -8.571093 -1.108781 0.109237 0.317529 2.003184 11.934671 28.021081 0.000000 0.000000 0.000000 4.704498 -1.755509 11.857919 -0.697267 1.008621 25.446132 3.451211 -2.379114 23.927942 0.000000 0.000000 0.000000 -7.273448 0.050898 13.951668 8.342043 -1.393338 -25.507320 3.588310 6.279867 32.880246 1.236236 2.388990 -26.423607 0.000000 0.000000 0.000000 -29.766896 12.429628 -13.351033 -33.662303 8.468226 -7.185003 -118.667168 -38.092876 62.043594 0.000000 0.000000 0.000000 13.423723 0.301996 1.048213 54.737850 7.766227 -5.083861 133.839063 53.790876 117.290368 0.000000 0.000000 0.000000 
0.347639 0.984435 2.184319 -2.917560 2.292731 -13.027329 5.101961 -0.338570 -7.956970 -1.006660 0.096818 0.471704 0.985185 10.630997 28.333663 0.000000 0.000000 0.000000 2.158011 -1.121695 9.186423 0.704744 0.893700 39.230855 5.678267 -0.210062 26.491758 0.000000 0.000000 0.000000 -9.282933 0.263780 15.341982 8.316403 -1.323565 -26.634564 6.052885 5.896715 33.989920 0.788231 2.510524 -26.453481 0.000000 0.000000 0.000000 -29.604300 11.785254 -12.397982 -33.335102 9.096219 -7.432991 -117.299056 -38.363397 61.513058 0.000000 0.000000 0.000000 12.952261 1.713028 1.550419 52.617695 11.694712 -3.431960 136.916449 52.431633 119.560786 0.000000 0.000000 0.000000 
0.361118 0.961483 2.248158 -2.734307 2.169809 -13.895560 4.679735 -0.383248 -8.365262 -1.987446 0.034396 8.520707 2.761705 11.879248 23.656094 0.000000 0.000000 0.000000 -0.455333 -0.317599 3.130482 2.215896 0.267383 52.970665 5.280959 -1.718514 28.661074 0.000000 0.000000 0.000000 -9.857001 0.346291 16.565856 9.847325 -1.771012 -26.216176 3.982964 5.489990 33.037748 0.310359 2.768786 -28.390998 0.000000 0.000000 0.000000 -30.031535 10.757440 -11.516776 -31.276467 8.530691 -6.873564 -116.462122 -40.361071 63.673001 0.000000 0.000000 0.000000 16.148442 3.486775 2.515575 48.709248 12.953673 -3.070388 138.568371 53.291588 121.334977 0.000000 0.000000 0.000000 
0.371752 0.949801 2.298755 -2.539328 1.338528 -14.909525 5.143281 -0.245036 -6.825545 -3.074586 0.171902 13.677320 3.915223 12.645508 20.127683 0.000000 0.000000 0.000000 -1.592696 0.221123 -2.810358 2.244778 0.619641 57.531422 0.148991 -7.760499 23.179608 0.000000 0.000000 0.000000 -9.271138 0.374825 19.044713 9.779516 -1.693010 -27.116541 2.235708 4.323121 33.515263 -0.125131 2.823598 -31.255060 0.000000 0.000000 0.000000 -32.313265 7.291875 -8.955490 -30.256952 5.695346 -6.277564 -115.849861 -46.362678 72.255088 0.000000 0.000000 0.000000 19.414081 4.690280 3.017977 47.482273 13.282468 -3.147792 134.013940 54.751894 114.489370 0.000000 0.000000 0.000000 
0.380302 0.959736 2.339912 -2.495980 0.857229 -14.852202 4.882134 -0.084510 -3.394544 -3.633035 0.332081 12.204312 4.817265 13.673853 19.261062 0.000000 0.000000 0.000000 -1.586264 0.626550 -7.502679 2.413554 0.572952 51.593164 -3.851583 -12.622490 15.026564 0.000000 0.000000 0.000000 -8.266282 0.318135 21.025021 8.948029 -1.347083 -28.665924 1.020969 2.088089 33.950258 -1.555447 3.170946 -31.603289 0.000000 0.000000 0.000000 -33.371123 4.069804 -5.741172 -32.032454 0.951671 -5.966542 -113.414934 -51.118148 77.178081 0.000000 0.000000 0.000000 20.968015 5.483571 2.916659 46.318111 10.978092 -3.970456 131.645160 55.755419 110.157797 0.000000 0.000000 0.000000 
0.387160 0.974750 2.376379 -2.316720 0.627772 -14.153355 4.067256 0.070916 0.114679 -3.274454 0.293660 9.210094 4.496718 13.251947 19.478274 0.000000 0.000000 0.000000 -1.519952 0.892558 -10.472741 2.127427 0.558527 39.593957 -4.192452 -13.186836 15.092169 0.000000 0.000000 0.000000 -7.077023 0.184319 21.870855 8.991521 -1.249019 -29.643744 -1.013923 -0.362218 33.942972 -1.747325 2.790430 -32.517946 0.000000 0.000000 0.000000 -35.123490 2.738817 -3.883872 -33.256198 -4.089671 -5.334517 -115.300138 -53.716392 83.842554 0.000000 0.000000 0.000000 20.891599 4.996352 1.937249 45.557956 7.799717 -4.894155 129.687404 53.441307 102.378237 0.000000 0.000000 0.000000 
0.391608 0.987127 2.411942 -2.212998 1.370598 -13.979674 3.073600 0.273720 3.718216 -2.290717 0.153267 6.011028 4.389422 13.428497 20.954179 0.000000 0.000000 0.000000 -1.893837 0.819299 -10.129832 2.179924 0.187957 25.308680 -2.921816 -11.356301 17.796403 0.000000 0.000000 0.000000 -6.027439 -0.005326 22.444921 9.124791 -1.165193 -30.644840 -2.810785 -2.977180 34.525484 -3.232184 3.200212 -32.868574 0.000000 0.000000 0.000000 -34.805698 0.994583 -1.499242 -35.271585 -10.185396 -4.458337 -120.947164 -55.134202 93.888670 0.000000 0.000000 0.000000 19.728436 4.174095 0.976608 44.332795 4.085373 -5.991993 130.009191 51.024254 97.783204 0.000000 0.000000 0.000000 
0.393085 0.990632 2.448032 -1.735775 1.706927 -12.958623 2.325024 0.482926 6.751221 -1.727003 0.119390 3.363097 4.488940 13.648504 21.381919 0.000000 0.000000 0.000000 -1.098414 0.840200 -9.475310 1.278444 0.235547 14.919884 -1.439511 -9.455932 20.786338 0.000000 0.000000 0.000000 -5.303569 -0.115125 21.787586 9.349360 -1.241356 -30.149473 -4.783382 -5.111863 33.238822 -3.314795 2.861292 -32.458257 0.000000 0.000000 0.000000 -34.759493 0.041350 -0.033095 -36.744833 -14.695400 -3.463624 -128.434760 -56.650971 106.530275 0.000000 0.000000 0.000000 19.452746 3.665325 0.144226 42.068049 0.808124 -6.428380 133.360822 49.140492 97.626850 0.000000 0.000000 0.000000 
0.391098 0.989185 2.485774 -1.236004 2.333351 -12.666945 2.166134 0.687736 9.893963 -1.135331 0.078429 1.747895 3.633047 12.625330 21.469068 0.000000 0.000000 0.000000 -0.506131 0.634527 -6.741204 0.460188 0.264048 9.705825 0.460153 -6.951707 23.236438 0.000000 0.000000 0.000000 -4.269184 -0.274295 20.283828 8.692292 -1.160983 -29.350002 -5.525244 -7.181805 32.663872 -4.208448 3.041154 -32.732740 0.000000 0.000000 0.000000 -34.337082 -1.894802 2.137750 -37.865126 -19.199994 -2.404916 -136.442419 -57.134946 119.726555 0.000000 0.000000 0.000000 19.529840 3.446162 -0.436849 40.605598 -0.317907 -6.346713 134.424294 49.725105 98.306209 0.000000 0.000000 0.000000 
0.386245 0.983523 2.522825 -0.878240 3.313138 -12.873374 2.569184 0.777667 12.345548 -1.064515 0.060811 1.970305 2.565357 11.120282 20.246724 0.000000 0.000000 0.000000 -0.421329 0.331014 -3.522516 -0.229644 0.352334 8.612179 0.381282 -6.856870 23.097287 0.000000 0.000000 0.000000 -3.619779 -0.357887 18.411443 8.046507 -1.107662 -28.095686 -6.247531 -8.999054 32.279583 -4.746424 3.112948 -31.108423 0.000000 0.000000 0.000000 -34.232663 -2.860140 3.331921 -38.481699 -22.102785 -1.609793 -141.937044 -56.919017 128.670778 0.000000 0.000000 0.000000 19.318005 3.858025 -0.529817 41.577422 -1.236212 -6.642624 135.999517 49.647240 99.762750 0.000000 0.000000 0.000000 
0.379596 0.979320 2.555023 -0.830057 3.707662 -12.676620 3.430225 0.718926 13.295447 -1.372476 0.041407 4.059908 2.465211 10.305808 16.853763 0.000000 0.000000 0.000000 0.047265 0.169825 -1.724267 -0.325561 0.401358 9.616061 -0.807667 -8.301037 21.651762 0.000000 0.000000 0.000000 -2.400704 -0.488969 17.262216 7.306394 -0.979132 -27.344600 -6.222946 -9.831993 31.990129 -5.000583 3.156868 -31.635214 0.000000 0.000000 0.000000 -34.292739 -3.115024 3.733636 -38.757661 -22.787911 -1.430432 -142.871510 -57.139880 130.703888 0.000000 0.000000 0.000000 19.911496 3.544960 -0.931646 40.699486 -1.048680 -6.327197 137.340117 50.022573 101.725006 0.000000 0.000000 0.000000 
